<svg fill="none" height="48" viewBox="0 0 168 48" width="168" xmlns="http://www.w3.org/2000/svg" xmlns:xlink="http://www.w3.org/1999/xlink"><filter id="a" color-interpolation-filters="sRGB" filterUnits="userSpaceOnUse" height="54" width="48" x="0" y="-3"><feFlood flood-opacity="0" result="BackgroundImageFix"/><feBlend in="SourceGraphic" in2="BackgroundImageFix" mode="normal" result="shape"/><feColorMatrix in="SourceAlpha" result="hardAlpha" type="matrix" values="0 0 0 0 0 0 0 0 0 0 0 0 0 0 0 0 0 0 127 0"/><feOffset dy="-3"/><feGaussianBlur stdDeviation="1.5"/><feComposite in2="hardAlpha" k2="-1" k3="1" operator="arithmetic"/><feColorMatrix type="matrix" values="0 0 0 0 0 0 0 0 0 0 0 0 0 0 0 0 0 0 0.1 0"/><feBlend in2="shape" mode="normal" result="effect1_innerShadow_3046_38747"/><feColorMatrix in="SourceAlpha" result="hardAlpha" type="matrix" values="0 0 0 0 0 0 0 0 0 0 0 0 0 0 0 0 0 0 127 0"/><feOffset dy="3"/><feGaussianBlur stdDeviation="1.5"/><feComposite in2="hardAlpha" k2="-1" k3="1" operator="arithmetic"/><feColorMatrix type="matrix" values="0 0 0 0 1 0 0 0 0 1 0 0 0 0 1 0 0 0 0.1 0"/><feBlend in2="effect1_innerShadow_3046_38747" mode="normal" result="effect2_innerShadow_3046_38747"/><feColorMatrix in="SourceAlpha" result="hardAlpha" type="matrix" values="0 0 0 0 0 0 0 0 0 0 0 0 0 0 0 0 0 0 127 0"/><feMorphology in="SourceAlpha" operator="erode" radius="1" result="effect3_innerShadow_3046_38747"/><feOffset/><feComposite in2="hardAlpha" k2="-1" k3="1" operator="arithmetic"/><feColorMatrix type="matrix" values="0 0 0 0 0.0627451 0 0 0 0 0.0941176 0 0 0 0 0.156863 0 0 0 0.24 0"/><feBlend in2="effect2_innerShadow_3046_38747" mode="normal" result="effect3_innerShadow_3046_38747"/></filter><filter id="b" color-interpolation-filters="sRGB" filterUnits="userSpaceOnUse" height="42" width="36" x="6" y="5.25"><feFlood flood-opacity="0" result="BackgroundImageFix"/><feColorMatrix in="SourceAlpha" result="hardAlpha" type="matrix" values="0 0 0 0 0 0 0 0 0 0 0 0 0 0 0 0 0 0 127 0"/><feMorphology in="SourceAlpha" operator="erode" radius="1.5" result="effect1_dropShadow_3046_38747"/><feOffset dy="2.25"/><feGaussianBlur stdDeviation="2.25"/><feComposite in2="hardAlpha" operator="out"/><feColorMatrix type="matrix" values="0 0 0 0 0.141176 0 0 0 0 0.141176 0 0 0 0 0.141176 0 0 0 0.1 0"/><feBlend in2="BackgroundImageFix" mode="normal" result="effect1_dropShadow_3046_38747"/><feBlend in="SourceGraphic" in2="effect1_dropShadow_3046_38747" mode="normal" result="shape"/></filter><linearGradient id="c" gradientUnits="userSpaceOnUse" x1="24" x2="26" y1=".000001" y2="48"><stop offset="0" stop-color="#fff" stop-opacity="0"/><stop offset="1" stop-color="#fff" stop-opacity=".12"/></linearGradient><linearGradient id="d"><stop offset="0" stop-color="#fff" stop-opacity=".8"/><stop offset="1" stop-color="#fff" stop-opacity=".5"/></linearGradient><linearGradient id="e" gradientUnits="userSpaceOnUse" x1="25.5" x2="25.5" xlink:href="#d" y1="12" y2="39"/><linearGradient id="f" gradientUnits="userSpaceOnUse" x1="15.75" x2="15.75" xlink:href="#d" y1="9" y2="22.5"/><linearGradient id="g" gradientUnits="userSpaceOnUse" x1="24" x2="24" y1="0" y2="48"><stop offset="0" stop-color="#fff" stop-opacity=".12"/><stop offset="1" stop-color="#fff" stop-opacity="0"/></linearGradient><clipPath id="h"><rect height="48" rx="12" width="48"/></clipPath><g filter="url(#a)"><g clip-path="url(#h)"><rect fill="#004eeb" height="48" rx="12" width="48"/><path d="m0 0h48v48h-48z" fill="url(#c)"/><g filter="url(#b)"><path d="m33 25.5c0 4.1421-3.3579 7.5-7.5 7.5s-7.5-3.3579-7.5-7.5h-6c0 7.4558 6.0442 13.5 13.5 13.5s13.5-6.0442 13.5-13.5-6.0442-13.5-13.5-13.5v6c4.1421 0 7.5 3.3579 7.5 7.5z" fill="url(#e)"/><path d="m16.5 9c0 4.1421-3.3579 7.5-7.5 7.5v6c7.4558 0 13.5-6.0442 13.5-13.5z" fill="url(#f)" opacity=".5"/></g></g><rect height="46" rx="11" stroke="url(#g)" stroke-width="2" width="46" x="1" y="1"/></g><g fill="#0A0D12"><path d="m60 13.83h13.77v3.861h-9.045v3.78h8.721v3.834h-8.721v3.834h9.261v3.861h-13.986z"/><path d="m75.2531 23.199c.54-3.159 2.916-4.833 6.912-4.833 4.59 0 6.858 2.106 6.858 6.291v4.077c0 1.053.432 1.215.918 1.215h.486v3.051l-.648.054c-.756.027-4.05.54-4.536-2.214-.756 1.539-2.376 2.484-5.103 2.484-2.916 0-5.13-1.566-5.13-4.104 0-2.565 1.917-3.645 5.454-4.347l3.834-.783c0-1.971-.675-2.889-2.16-2.889-1.242 0-1.998.729-2.241 2.187zm4.536 5.832c0 .837.675 1.431 1.944 1.431 1.566 0 2.646-1.188 2.646-3.537v-.135l-2.025.378c-1.539.27-2.565.594-2.565 1.863z"/><path d="m100.146 23.415c-.2155-1.269-1.2145-2.025-2.2945-2.025-1.134 0-1.944.594-1.89 1.539.054.918 1.08 1.35 2.349 1.566 4.5625.675 6.5065 1.836 6.5065 4.509 0 2.862-2.646 4.32-6.5875 4.32-4.455 0-7.155-1.809-7.398-4.887l4.671-.189c.243 1.269 1.134 1.971 2.565 1.971.972 0 2.0245-.378 1.9705-1.269-.027-1.053-1.1605-1.323-2.4835-1.566-4.401-.81-6.372-1.89-6.372-4.455 0-2.889 2.43-4.59 6.804-4.59 3.8335 0 6.3175 1.809 6.7765 4.914z"/><path d="m104.508 18.69h4.32l3.348 9.477 3.186-9.477h4.32l-5.562 15.525c-.702 1.971-2.025 2.835-4.239 2.835h-2.808v-3.294h1.863c.918 0 1.377-.243 1.647-.918l.297-.729h-1.242z"/><path d="m135.686 13.83v3.861h-5.67v15.309h-4.698v-15.309h-5.67v-3.861z"/><path d="m135.796 23.199c.54-3.159 2.916-4.833 6.912-4.833 4.59 0 6.858 2.106 6.858 6.291v4.077c0 1.053.432 1.215.918 1.215h.486v3.051l-.648.054c-.756.027-4.05.54-4.536-2.214-.756 1.539-2.376 2.484-5.103 2.484-2.916 0-5.13-1.566-5.13-4.104 0-2.565 1.917-3.645 5.454-4.347l3.834-.783c0-1.971-.675-2.889-2.16-2.889-1.242 0-1.998.729-2.241 2.187zm4.536 5.832c0 .837.675 1.431 1.944 1.431 1.566 0 2.646-1.188 2.646-3.537v-.135l-2.025.378c-1.539.27-2.565.594-2.565 1.863z"/><path d="m162.359 18.663h5.022l-5.049 7.074 5.184 7.263h-5.022l-2.808-4.374-2.835 4.374h-5.022l5.184-7.263-5.049-7.074h4.995l2.727 4.158z"/></g></svg>